# xmcd
#
# Track frame offsets: 
#        150
#        17952
#        33626
#        50136
#        64561
#        80798
#        96012
#        121952
#        138355
#        157329
#        182585
#
# Disc length: 2710 seconds
#
# Revision: 22
# Processed by: cddbd v1.5.2PL0 Copyright (c) Steve Scherf et al.
# Submitted via: ExactAudioCopy v1.3
#
DISCID=9b0a940b
DTITLE=Keane - Hopes and Fears
DYEAR=2004
DGENRE=Alternative
TTITLE0=Somewhere Only We Know
TTITLE1=This Is the Last Time
TTITLE2=Bend and Break
TTITLE3=We Might as Well Be Strangers
TTITLE4=Everybody's Changing
TTITLE5=Your Eyes Open
TTITLE6=She Has No Time
TTITLE7=Can't Stop Now
TTITLE8=Sunshine
TTITLE9=Untitled 1
TTITLE10=Bedshaped
EXTD=UPC: 602498188248 - Catalogue #: B000250702 - Label: Interscope Rec
EXTD=ords - ASIN: B000268QB2 - Release Date: 2004 05 25 - Discogs: m10134
EXTD=0,r1788950 - MUSICBRAINZ_ALBUMID: df6d6bc4-53c1-43e8-9008-a52e6c2c
EXTD=9852;
EXTT0=
EXTT1=
EXTT2=
EXTT3=
EXTT4=
EXTT5=
EXTT6=
EXTT7=
EXTT8=
EXTT9=
EXTT10=
PLAYORDER=
